<svg width="430" height="460" viewBox="0 0 430 460" fill="none" xmlns="http://www.w3.org/2000/svg">
<path d="M0 404H19.4792C24.7292 404 29 405.396 32.2917 408.188C35.5938 410.979 37.25 414.974 37.25 420.167C37.25 424.182 36.25 427.542 34.25 430.25C32.25 432.958 29.526 434.865 26.0833 435.958L44.8542 458.479H29.0625L12.4167 436.958V458.479H0V404ZM12.4167 428.167H13.875C15.0104 428.167 15.9792 428.146 16.7708 428.104C17.5625 428.062 18.4635 427.911 19.4792 427.646C20.4896 427.385 21.3021 427.01 21.9167 426.521C22.5417 426.036 23.0677 425.333 23.5 424.417C23.9427 423.49 24.1667 422.365 24.1667 421.042C24.1667 419.724 23.9427 418.599 23.5 417.667C23.0677 416.74 22.5417 416.036 21.9167 415.562C21.3021 415.078 20.4896 414.703 19.4792 414.438C18.4635 414.177 17.5625 414.021 16.7708 413.979C15.9792 413.927 15.0104 413.896 13.875 413.896H12.4167V428.167Z" fill="black"/>
<path d="M78.4489 404V414.896H59.6989V425.729H77.6572V436.625H59.6989V447.583H78.4489V458.479H47.2822V404H78.4489Z" fill="black"/>
<path d="M105.666 403C108.609 403 111.489 403.432 114.312 404.292C117.13 405.156 119.218 406 120.583 406.833L122.562 408.146L117.541 418.062C117.151 417.802 116.604 417.458 115.896 417.042C115.198 416.625 113.88 416.062 111.937 415.354C110.005 414.646 108.198 414.292 106.521 414.292C104.448 414.292 102.854 414.74 101.729 415.625C100.604 416.5 100.041 417.688 100.041 419.188C100.041 419.938 100.302 420.635 100.833 421.271C101.375 421.911 102.276 422.594 103.541 423.312C104.817 424.036 105.942 424.62 106.916 425.062C107.885 425.51 109.385 426.167 111.416 427.042C114.927 428.542 117.927 430.583 120.416 433.167C122.901 435.74 124.146 438.646 124.146 441.896C124.146 445.021 123.583 447.75 122.458 450.083C121.343 452.417 119.812 454.25 117.854 455.583C115.896 456.906 113.718 457.885 111.333 458.521C108.958 459.156 106.385 459.479 103.625 459.479C101.234 459.479 98.8955 459.234 96.6038 458.75C94.3226 458.266 92.4163 457.661 90.8747 456.938C89.333 456.203 87.9424 455.49 86.708 454.792C85.4684 454.083 84.5674 453.49 83.9997 453L83.1455 452.271L89.3538 441.833C89.8799 442.281 90.6038 442.844 91.5205 443.521C92.4476 444.203 94.0882 445.12 96.4372 446.271C98.7965 447.411 100.88 447.979 102.687 447.979C107.922 447.979 110.541 446.198 110.541 442.625C110.541 441.875 110.354 441.182 109.979 440.542C109.614 439.906 108.958 439.266 108 438.625C107.052 437.99 106.218 437.49 105.5 437.125C104.776 436.75 103.588 436.182 101.937 435.417C100.281 434.641 99.0622 434.052 98.2705 433.646C94.9632 432.021 92.4059 429.99 90.6038 427.542C88.7965 425.099 87.8955 422.469 87.8955 419.646C87.8955 414.76 89.6976 410.766 93.3122 407.667C96.9215 404.557 101.041 403 105.666 403Z" fill="black"/>
<path d="M127.522 431.208C127.522 423.323 130.199 416.646 135.564 411.188C140.939 405.729 147.418 403 155.001 403C162.611 403 169.074 405.724 174.397 411.167C179.73 416.599 182.397 423.281 182.397 431.208C182.397 439.182 179.777 445.891 174.543 451.333C169.303 456.766 162.793 459.479 155.001 459.479C147.027 459.479 140.449 456.786 135.272 451.396C130.105 445.995 127.522 439.266 127.522 431.208ZM140.918 431.208C140.918 434.073 141.355 436.682 142.23 439.042C143.116 441.391 144.657 443.385 146.855 445.021C149.064 446.646 151.777 447.458 155.001 447.458C159.611 447.458 163.095 445.875 165.459 442.708C167.819 439.531 169.001 435.698 169.001 431.208C169.001 426.766 167.798 422.948 165.397 419.75C162.991 416.557 159.527 414.958 155.001 414.958C150.501 414.958 147.027 416.557 144.584 419.75C142.137 422.948 140.918 426.766 140.918 431.208Z" fill="black"/>
<path d="M200.29 424.667V458.479H187.874V404H200.29L221.957 437.812H222.082V404H234.499V458.479H222.082L200.415 424.667H200.29Z" fill="black"/>
<path d="M270.086 404L292.086 458.479H278.753L274.711 447.583H253.982L249.961 458.479H236.607L258.607 404H270.086ZM270.482 436.688L264.419 420.833H264.274L258.211 436.688H270.482Z" fill="black"/>
<path d="M306.609 424.667V458.479H294.192V404H306.609L328.275 437.812H328.4V404H340.817V458.479H328.4L306.734 424.667H306.609Z" fill="black"/>
<path d="M377.738 447.25C379.623 447.25 381.457 446.969 383.238 446.396C385.029 445.828 386.342 445.281 387.175 444.75L388.425 443.875L393.717 454.458C393.535 454.583 393.29 454.76 392.988 454.979C392.681 455.203 391.967 455.615 390.842 456.208C389.717 456.792 388.514 457.307 387.238 457.75C385.957 458.198 384.285 458.589 382.217 458.938C380.144 459.297 378.014 459.479 375.821 459.479C370.748 459.479 365.946 458.24 361.404 455.75C356.873 453.25 353.222 449.828 350.446 445.479C347.681 441.12 346.3 436.406 346.3 431.333C346.3 427.5 347.113 423.828 348.738 420.312C350.363 416.786 352.529 413.771 355.238 411.271C357.946 408.76 361.102 406.75 364.717 405.25C368.326 403.75 372.029 403 375.821 403C379.332 403 382.576 403.427 385.55 404.271C388.519 405.104 390.623 405.938 391.863 406.771L393.717 408.021L388.425 418.583C388.118 418.323 387.654 418 387.029 417.625C386.415 417.25 385.186 416.76 383.342 416.146C381.493 415.536 379.623 415.229 377.738 415.229C374.738 415.229 372.05 415.719 369.675 416.688C367.3 417.646 365.415 418.917 364.029 420.5C362.639 422.083 361.582 423.792 360.863 425.625C360.139 427.448 359.779 429.307 359.779 431.208C359.779 435.349 361.326 439.057 364.425 442.333C367.535 445.615 371.972 447.25 377.738 447.25Z" fill="black"/>
<path d="M429.63 404V414.896H410.88V425.729H428.838V436.625H410.88V447.583H429.63V458.479H398.463V404H429.63Z" fill="black"/>
<path fill-rule="evenodd" clip-rule="evenodd" d="M88.5 0H0V312.5C30.8771 283.786 50.1318 270.37 88.5 252V0ZM0 377V342.5C32.745 306.402 52.2847 292.494 88.5 275V302C49.0691 323.841 29.7709 340.357 0 377ZM16 389.5H88.5V325C54.7448 346.449 38.7692 360.527 16 389.5ZM95.5 389.5V0H184.5L340.5 242V1H428.5V320.5C366.563 262.683 325.296 240.409 236.5 227.5L184.5 149.5V227.5C203.151 225.338 214.784 225.696 236.5 227.5L250.5 249.5C333.816 264.408 372.038 287.993 428.5 351V389.5C382.292 328.551 350.276 301.247 269.5 279L250.5 249.5C225.271 246.397 210.238 246.209 184.5 248V274C217.97 271.191 237.235 272.907 269.5 279L285.5 304C243.395 292.695 221.407 290.881 184.5 294V389.5H95.5ZM285.5 304C341.133 322.873 366.223 343.406 405.186 389.5H340L285.5 304Z" fill="black"/>
</svg>
